<svg width="49" height="49" viewBox="0 0 49 49" fill="none" xmlns="http://www.w3.org/2000/svg">
<circle cx="24.5" cy="24.5" r="24.5" fill="#0037CA"/>
<path d="M35.8015 15H13.5868C13.1659 15 12.7623 15.1691 12.4648 15.4701C12.1672 15.7711 12 16.1793 12 16.605V32.6551C12 33.0807 12.1672 33.489 12.4648 33.79C12.7623 34.091 13.1659 34.2601 13.5868 34.2601H35.8015C36.2223 34.2601 36.626 34.091 36.9235 33.79C37.2211 33.489 37.3883 33.0807 37.3883 32.6551V16.605C37.3883 16.1793 37.2211 15.7711 36.9235 15.4701C36.626 15.1691 36.2223 15 35.8015 15ZM34.5797 32.6551H14.9038L20.4575 26.8449L19.315 25.7295L13.5868 31.7242V17.8248L23.4485 27.7518C23.7458 28.0507 24.148 28.2185 24.5672 28.2185C24.9864 28.2185 25.3886 28.0507 25.6859 27.7518L35.8015 17.576V31.6198L29.9622 25.7134L28.8435 26.8449L34.5797 32.6551ZM14.6261 16.605H34.5162L24.5672 26.6122L14.6261 16.605Z" fill="white"/>
</svg>
