<svg width="49" height="49" viewBox="0 0 49 49" fill="none" xmlns="http://www.w3.org/2000/svg">
<circle cx="24.5" cy="24.5" r="24.5" fill="#0037CA"/>
<path d="M24.2137 24.7671C24.9159 24.7671 25.5172 24.5169 26.0177 24.0164C26.5173 23.5168 26.7671 22.9159 26.7671 22.2137C26.7671 21.5115 26.5173 20.9102 26.0177 20.4097C25.5172 19.9101 24.9159 19.6603 24.2137 19.6603C23.5115 19.6603 22.9106 19.9101 22.411 20.4097C21.9105 20.9102 21.6603 21.5115 21.6603 22.2137C21.6603 22.9159 21.9105 23.5168 22.411 24.0164C22.9106 24.5169 23.5115 24.7671 24.2137 24.7671ZM24.2137 34.1509C26.8097 31.7677 28.7354 29.6024 29.9908 27.655C31.2462 25.7085 31.8739 23.9798 31.8739 22.469C31.8739 20.1497 31.1343 18.2503 29.655 16.7711C28.1766 15.2926 26.3628 14.5534 24.2137 14.5534C22.0645 14.5534 20.2503 15.2926 18.7711 16.7711C17.2926 18.2503 16.5534 20.1497 16.5534 22.469C16.5534 23.9798 17.1811 25.7085 18.4366 27.655C19.692 29.6024 21.6177 31.7677 24.2137 34.1509ZM24.2137 37.5342C20.7878 34.619 18.2293 31.9111 16.5381 29.4105C14.846 26.9107 14 24.5969 14 22.469C14 19.2772 15.0269 16.7345 17.0807 14.8407C19.1336 12.9469 21.5113 12 24.2137 12C26.916 12 29.2937 12.9469 31.3467 14.8407C33.4005 16.7345 34.4274 19.2772 34.4274 22.469C34.4274 24.5969 33.5817 26.9107 31.8905 29.4105C30.1985 31.9111 27.6395 34.619 24.2137 37.5342Z" fill="white"/>
</svg>
