<svg width="49" height="49" viewBox="0 0 49 49" fill="none" xmlns="http://www.w3.org/2000/svg">
<circle cx="24.5" cy="24.5" r="24.5" fill="#0037CA"/>
<path d="M32.8358 15.5667C31.7122 14.4316 30.3738 13.5317 28.8986 12.9194C27.4235 12.307 25.8413 11.9945 24.2441 12.0001C17.5521 12.0001 12.0981 17.4542 12.0981 24.1461C12.0981 26.291 12.6618 28.3746 13.7159 30.213L12 36.5128L18.4346 34.8214C20.2118 35.7897 22.2096 36.3045 24.2441 36.3045C30.9361 36.3045 36.3902 30.8504 36.3902 24.1584C36.3902 20.9105 35.1278 17.8586 32.8358 15.5667V15.5667ZM24.2441 34.2454C22.4302 34.2454 20.653 33.7551 19.0964 32.8359L18.7287 32.6153L14.9048 33.6203L15.922 29.8944L15.6769 29.5144C14.6691 27.9051 14.134 26.0449 14.1326 24.1461C14.1326 18.5817 18.6675 14.0469 24.2319 14.0469C26.9283 14.0469 29.4653 15.1009 31.3651 17.0129C32.3057 17.9493 33.0512 19.063 33.5582 20.2896C34.0653 21.5162 34.3238 22.8312 34.3189 24.1584C34.3434 29.7228 29.8085 34.2454 24.2441 34.2454V34.2454ZM29.784 26.6955C29.4776 26.5484 27.9823 25.813 27.7127 25.7027C27.4308 25.6046 27.2347 25.5556 27.0263 25.8498C26.818 26.1562 26.2419 26.8425 26.0703 27.0386C25.8987 27.247 25.7149 27.2715 25.4085 27.1122C25.1021 26.9651 24.1216 26.6342 22.9695 25.6046C22.0625 24.7957 21.4619 23.803 21.2781 23.4966C21.1065 23.1901 21.2536 23.0308 21.4129 22.8715C21.5477 22.7367 21.7193 22.516 21.8664 22.3445C22.0135 22.1729 22.0747 22.038 22.1728 21.8419C22.2708 21.6336 22.2218 21.462 22.1483 21.3149C22.0747 21.1678 21.4619 19.6726 21.2168 19.0597C20.9717 18.4714 20.7143 18.545 20.5304 18.5327H19.9421C19.7338 18.5327 19.4151 18.6063 19.1332 18.9127C18.8636 19.2191 18.0792 19.9545 18.0792 21.4497C18.0792 22.945 19.17 24.3913 19.3171 24.5874C19.4641 24.7957 21.4619 27.8598 24.5015 29.1713C25.2246 29.4899 25.7884 29.6738 26.2296 29.8086C26.9528 30.0415 27.6146 30.0047 28.1416 29.9311C28.7299 29.8454 29.9433 29.1958 30.1885 28.4849C30.4458 27.774 30.4458 27.1735 30.36 27.0386C30.2743 26.9038 30.0904 26.8425 29.784 26.6955V26.6955Z" fill="white"/>
</svg>
